<svg width="81" height="95" viewBox="0 0 81 95" fill="none" xmlns="http://www.w3.org/2000/svg">
<path d="M8.0013 8.24356V18.4461C8.0013 27.7184 13.7625 34.6002 21.5869 35.624C13.7996 38.2058 7.61007 45.7865 7.61007 54.7427V58.3394C7.61007 70.2958 16.9746 77.3691 26.5204 78.4463C29.5266 87.5405 37.3962 94.0974 46.9049 94.0974H51.9372C62.2901 94.0974 73.3966 86.8639 73.3966 73.8391V70.2424C73.3966 61.2862 67.2071 53.7055 59.4198 51.1237C67.2442 50.0999 73.0054 43.2181 73.0054 33.9458V24.6781C73.0054 20.4537 76.5058 17.0306 80.0844 16.1848H26.2197V17.3689H64.8392V37.9521C64.8392 44.0861 60.6882 50.0732 55.5694 50.0732H26.8951V51.2617H41.5102L51.9743 51.4398C60.2558 51.4398 65.1687 61.3664 65.1687 68.2215V73.6744C65.1687 83.8236 57.5584 92.0542 48.1651 92.0542H47.0285C38.3969 92.0542 30.9638 86.5122 27.6034 78.5398C28.0935 78.5709 28.5835 78.5932 29.0695 78.5932H34.1018C44.5906 78.5932 54.7828 69.0005 54.7828 58.6421H53.9633C53.9633 68.6399 43.6516 76.5456 33.9782 76.5456H32.8416C23.4524 76.5456 15.838 68.3194 15.838 58.1658V52.7129C15.838 45.8533 20.755 35.9312 29.0324 35.9312L37.5568 35.7887C43.8081 35.7887 51.7478 43.3383 51.7478 43.3383L42.7127 26.8949C42.7127 26.8949 43.0421 34.569 32.1292 34.569H25.4332C20.3103 34.569 16.1634 28.5819 16.1634 22.4479V1.86473H30.935C43.3881 1.86473 53.3168 13.8122 53.3168 13.8122L51.2866 0.680664H0.914062C3.45081 0.82756 7.99306 3.69425 7.99306 8.23911L8.0013 8.24356Z" fill="#1F1B1A"/>
</svg>
